<svg width="306" height="230" viewBox="0 0 306 230" fill="none" xmlns="http://www.w3.org/2000/svg">
<circle cx="16" cy="215" r="15" fill="#8B6D60"/>
<path d="M155.936 19.728H151.414V19.266C152.095 19.266 152.576 19.2053 152.856 19.084C153.117 18.972 153.248 18.776 153.248 18.496V11.496C153.248 11.2813 153.192 11.1367 153.08 11.062C152.977 10.978 152.791 10.936 152.52 10.936H151.372V10.488C151.671 10.46 151.946 10.418 152.198 10.362C152.459 10.2967 152.697 10.222 152.912 10.138C153.239 10.0167 153.649 9.80667 154.144 9.508V18.496C154.144 18.6733 154.191 18.818 154.284 18.93C154.387 19.0327 154.573 19.112 154.844 19.168C154.975 19.196 155.129 19.2193 155.306 19.238C155.493 19.2567 155.703 19.266 155.936 19.266V19.728Z" fill="#743215"/>
<path d="M202.818 17.236C202.706 17.656 202.594 18.076 202.482 18.496C202.379 18.916 202.272 19.336 202.16 19.756H196.714C196.714 19.7093 196.709 19.672 196.7 19.644C196.7 19.616 196.7 19.5833 196.7 19.546C196.7 19.0233 197.022 18.3513 197.666 17.53C197.862 17.2873 198.049 17.0633 198.226 16.858C198.413 16.6433 198.599 16.438 198.786 16.242C198.982 16.046 199.183 15.85 199.388 15.654C199.593 15.458 199.822 15.248 200.074 15.024C200.279 14.8373 200.471 14.6273 200.648 14.394C200.825 14.1607 200.979 13.918 201.11 13.666C201.241 13.4047 201.343 13.1433 201.418 12.882C201.502 12.6113 201.544 12.3547 201.544 12.112C201.544 11.8413 201.511 11.594 201.446 11.37C201.381 11.1367 201.269 10.936 201.11 10.768C200.923 10.5627 200.713 10.4087 200.48 10.306C200.247 10.194 199.967 10.138 199.64 10.138C199.155 10.138 198.711 10.2827 198.31 10.572C198.105 10.7213 197.941 10.8847 197.82 11.062C197.708 11.2393 197.652 11.4307 197.652 11.636C197.652 11.804 197.717 11.9673 197.848 12.126C197.913 12.2007 197.96 12.2893 197.988 12.392C198.025 12.4853 198.044 12.616 198.044 12.784C198.044 12.9333 197.983 13.0593 197.862 13.162C197.75 13.2647 197.605 13.316 197.428 13.316C197.157 13.316 196.975 13.218 196.882 13.022C196.789 12.826 196.742 12.5507 196.742 12.196C196.742 11.6827 196.91 11.2113 197.246 10.782C197.414 10.5673 197.601 10.376 197.806 10.208C198.011 10.04 198.24 9.914 198.492 9.83C198.884 9.69 199.299 9.62 199.738 9.62C200.559 9.62 201.217 9.844 201.712 10.292C202.235 10.7587 202.496 11.4027 202.496 12.224C202.496 12.532 202.445 12.84 202.342 13.148C202.249 13.456 202.095 13.7593 201.88 14.058C201.656 14.3847 201.395 14.7113 201.096 15.038C200.797 15.3647 200.471 15.6913 200.116 16.018C199.939 16.1767 199.733 16.354 199.5 16.55C199.267 16.746 199.001 16.984 198.702 17.264C198.235 17.7027 197.853 18.23 197.554 18.846H200.508C200.975 18.846 201.343 18.734 201.614 18.51C201.875 18.314 202.155 17.8567 202.454 17.138L202.818 17.236Z" fill="#743215"/>
<path d="M248.804 16.928C248.804 17.7587 248.543 18.4493 248.02 19C247.404 19.644 246.587 19.966 245.57 19.966C245.122 19.966 244.725 19.9053 244.38 19.784C244.044 19.6627 243.741 19.4947 243.47 19.28C243.227 19.0747 243.041 18.8367 242.91 18.566C242.779 18.286 242.714 17.992 242.714 17.684C242.714 17.404 242.812 17.1847 243.008 17.026C243.101 16.942 243.232 16.9 243.4 16.9C243.811 16.9 244.016 17.124 244.016 17.572C244.016 17.6373 244.002 17.7213 243.974 17.824C243.955 17.9173 243.946 17.992 243.946 18.048C243.946 18.188 243.96 18.342 243.988 18.51C244.016 18.6687 244.067 18.79 244.142 18.874C244.515 19.2473 244.991 19.434 245.57 19.434C245.85 19.434 246.149 19.364 246.466 19.224C246.783 19.084 247.035 18.9067 247.222 18.692C247.623 18.2347 247.824 17.6327 247.824 16.886C247.824 16.3073 247.591 15.7987 247.124 15.36C246.863 15.1173 246.587 14.9447 246.298 14.842C246.009 14.73 245.654 14.674 245.234 14.674C245.197 14.674 245.155 14.6787 245.108 14.688C245.071 14.688 245.029 14.6927 244.982 14.702C244.935 14.7113 244.898 14.7207 244.87 14.73C244.842 14.73 244.819 14.73 244.8 14.73C244.679 14.73 244.595 14.6647 244.548 14.534C244.529 14.478 244.515 14.4313 244.506 14.394C244.506 14.3473 244.506 14.3007 244.506 14.254C244.506 14.114 244.571 14.0347 244.702 14.016C244.749 14.0067 244.791 14.0067 244.828 14.016C244.865 14.016 244.912 14.0207 244.968 14.03C245.024 14.0393 245.071 14.0487 245.108 14.058C245.155 14.058 245.197 14.058 245.234 14.058C245.411 14.058 245.593 14.0347 245.78 13.988C245.976 13.932 246.163 13.8667 246.34 13.792C246.601 13.6707 246.797 13.5447 246.928 13.414C247.357 13.05 247.572 12.574 247.572 11.986C247.572 11.4073 247.423 10.9547 247.124 10.628C246.965 10.46 246.769 10.32 246.536 10.208C246.312 10.0867 246.074 10.0213 245.822 10.012H245.584C245.547 10.012 245.509 10.012 245.472 10.012C245.435 10.012 245.397 10.0167 245.36 10.026C244.94 10.0633 244.613 10.1987 244.38 10.432C244.24 10.572 244.17 10.726 244.17 10.894C244.17 10.9687 244.184 11.048 244.212 11.132C244.24 11.2067 244.259 11.286 244.268 11.37C244.287 11.454 244.296 11.524 244.296 11.58C244.296 11.804 244.245 11.9813 244.142 12.112C244.049 12.2333 243.899 12.294 243.694 12.294L243.68 12.28C243.269 12.252 243.064 12 243.064 11.524C243.064 10.992 243.302 10.5347 243.778 10.152C244.254 9.77867 244.809 9.56867 245.444 9.522C245.491 9.51267 245.551 9.508 245.626 9.508H245.822C246.634 9.51733 247.292 9.746 247.796 10.194C248.281 10.642 248.524 11.2393 248.524 11.986C248.524 12.602 248.314 13.134 247.894 13.582C247.586 13.918 247.194 14.1793 246.718 14.366C247.325 14.5527 247.796 14.842 248.132 15.234C248.58 15.738 248.804 16.3027 248.804 16.928Z" fill="#743215"/>
<path d="M295.21 17.222H293.418V18.888C293.418 19.1027 293.507 19.2427 293.684 19.308C293.861 19.3827 294.197 19.42 294.692 19.42V19.882H291.192V19.434C291.724 19.434 292.088 19.392 292.284 19.308C292.443 19.2333 292.522 19.0933 292.522 18.888V17.25H288.56V16.704C289.288 15.472 290.011 14.254 290.73 13.05C291.458 11.8367 292.186 10.6093 292.914 9.368H293.418V16.676H295.21V17.222ZM292.522 16.676V11.258C291.962 12.1633 291.411 13.0687 290.87 13.974C290.338 14.87 289.792 15.7707 289.232 16.676H292.522Z" fill="#743215"/>
<path d="M19.1002 66.578C19.1002 67.4087 18.8576 68.1507 18.3722 68.804C18.1389 69.14 17.8076 69.4107 17.3782 69.616C16.9582 69.8213 16.5242 69.924 16.0762 69.924C15.1149 69.924 14.3729 69.6767 13.8502 69.182C13.5889 68.958 13.3929 68.7153 13.2622 68.454C13.1316 68.1833 13.0662 67.8707 13.0662 67.516C13.0662 67.0867 13.2762 66.872 13.6962 66.872C14.1162 66.872 14.3262 67.096 14.3262 67.544C14.3262 67.5907 14.3216 67.6513 14.3122 67.726C14.3122 67.8007 14.3029 67.8707 14.2842 67.936C14.2656 67.9827 14.2516 68.02 14.2422 68.048C14.2422 68.076 14.2422 68.104 14.2422 68.132C14.2422 68.412 14.3262 68.65 14.4942 68.846C14.7649 69.2007 15.2456 69.378 15.9362 69.378C16.4776 69.378 16.9396 69.182 17.3222 68.79C17.6022 68.4913 17.8029 68.1647 17.9242 67.81C18.0549 67.446 18.1202 67.026 18.1202 66.55C18.1202 66.1767 18.0829 65.836 18.0082 65.528C17.9336 65.2107 17.8029 64.9353 17.6162 64.702C17.4016 64.4313 17.1542 64.2213 16.8742 64.072C16.6036 63.9133 16.2909 63.834 15.9362 63.834C15.5722 63.834 15.1896 63.946 14.7882 64.17C14.3682 64.4127 14.0416 64.716 13.8082 65.08C13.7336 65.052 13.6589 65.024 13.5842 64.996C13.5096 64.968 13.4302 64.94 13.3462 64.912L13.8502 59.704H18.6942C18.6476 59.8627 18.6056 60.0213 18.5682 60.18C18.5309 60.3387 18.4889 60.4973 18.4422 60.656H14.3682C14.3029 61.216 14.2422 61.7807 14.1862 62.35C14.1302 62.9193 14.0696 63.4887 14.0042 64.058C14.6296 63.5353 15.3249 63.274 16.0902 63.274C17.0329 63.274 17.7889 63.6147 18.3582 64.296C18.8529 64.8747 19.1002 65.6353 19.1002 66.578Z" fill="#743215"/>
<path d="M65.0722 66.662C65.0722 67.6887 64.7596 68.5147 64.1342 69.14C63.6116 69.7 62.9349 69.98 62.1042 69.98C61.5909 69.98 61.1196 69.8633 60.6902 69.63C60.2702 69.406 59.9436 69.07 59.7102 68.622C59.4489 68.118 59.2669 67.586 59.1642 67.026C59.0616 66.4567 59.0102 65.8733 59.0102 65.276C59.0102 64.5387 59.0942 63.806 59.2622 63.078C59.4302 62.322 59.6682 61.678 59.9762 61.146C60.6389 60.0633 61.5302 59.522 62.6502 59.522C63.2569 59.522 63.7796 59.676 64.2182 59.984C64.6476 60.2733 64.8622 60.614 64.8622 61.006C64.8622 61.5193 64.6569 61.776 64.2462 61.776C63.8262 61.776 63.6162 61.58 63.6162 61.188C63.6162 61.1507 63.6162 61.1087 63.6162 61.062C63.6162 61.0153 63.6209 60.9547 63.6302 60.88C63.6396 60.7773 63.6396 60.7073 63.6302 60.67C63.6209 60.6233 63.6069 60.5813 63.5882 60.544C63.4109 60.2267 63.0516 60.068 62.5102 60.068C61.8102 60.068 61.2129 60.5253 60.7182 61.44C60.5876 61.6733 60.4756 61.944 60.3822 62.252C60.2982 62.56 60.2189 62.91 60.1442 63.302C60.0509 63.7313 60.0042 64.1793 60.0042 64.646C60.2282 64.3567 60.5176 64.1 60.8722 63.876C61.3762 63.568 61.9176 63.414 62.4962 63.414C63.2896 63.414 63.9102 63.68 64.3582 64.212C64.8342 64.772 65.0722 65.5887 65.0722 66.662ZM64.1202 66.536C64.1202 65.6587 63.9522 65.0147 63.6162 64.604C63.2429 64.1747 62.7856 63.96 62.2442 63.96C62.0016 63.96 61.7496 64.0207 61.4882 64.142C61.2362 64.2633 61.0122 64.4033 60.8162 64.562C60.4242 64.898 60.1536 65.2853 60.0042 65.724V65.85C60.0042 66.9233 60.1582 67.768 60.4662 68.384C60.6342 68.72 60.8489 68.986 61.1102 69.182C61.3716 69.3873 61.6982 69.49 62.0902 69.49C62.7809 69.49 63.2849 69.2333 63.6022 68.72C63.9476 68.2067 64.1202 67.4787 64.1202 66.536Z" fill="#743215"/>
<path d="M106.754 65.514C106.885 65.178 107.118 64.6787 107.454 64.016C107.8 63.344 108.252 62.5133 108.812 61.524C108.896 61.384 108.976 61.244 109.05 61.104C109.134 60.9547 109.218 60.8053 109.302 60.656H106.614C106.446 60.656 106.292 60.6607 106.152 60.67C106.012 60.67 105.877 60.684 105.746 60.712C105.625 60.74 105.499 60.7913 105.368 60.866C105.238 60.9407 105.098 61.048 104.948 61.188C104.715 61.4213 104.496 61.8833 104.29 62.574C104.244 62.5553 104.192 62.5413 104.136 62.532C104.08 62.5133 104.024 62.4947 103.968 62.476C104.071 62.028 104.174 61.58 104.276 61.132C104.379 60.6747 104.482 60.2173 104.584 59.76H110.156V60.348C110.119 60.4133 110.086 60.4787 110.058 60.544C110.03 60.6 109.998 60.6607 109.96 60.726C109.802 60.9873 109.652 61.2393 109.512 61.482C109.372 61.7247 109.237 61.9673 109.106 62.21C108.593 63.05 108.201 63.8387 107.93 64.576C107.8 64.9027 107.683 65.2527 107.58 65.626C107.478 65.99 107.389 66.3727 107.314 66.774C107.24 67.1287 107.179 67.46 107.132 67.768C107.095 68.0667 107.076 68.3513 107.076 68.622V68.916C107.067 69.2613 107.02 69.518 106.936 69.686C106.852 69.854 106.689 69.938 106.446 69.938C106.241 69.938 106.096 69.854 106.012 69.686C105.928 69.5367 105.886 69.3267 105.886 69.056V68.944C105.905 68.4867 105.984 67.9733 106.124 67.404C106.274 66.8347 106.484 66.2047 106.754 65.514Z" fill="#743215"/>
<path d="M152.67 64.884C152.372 65.0427 152.106 65.2107 151.872 65.388C151.648 65.5653 151.452 65.7613 151.284 65.976C151.023 66.2933 150.892 66.7553 150.892 67.362C150.892 67.978 151.088 68.482 151.48 68.874C151.882 69.2753 152.39 69.476 153.006 69.476C153.66 69.476 154.206 69.28 154.644 68.888C155.092 68.4867 155.316 67.9827 155.316 67.376C155.316 67.0493 155.237 66.76 155.078 66.508C154.929 66.2467 154.714 66.0087 154.434 65.794C154.35 65.7287 154.238 65.654 154.098 65.57C153.958 65.486 153.809 65.402 153.65 65.318C153.492 65.2247 153.324 65.1407 153.146 65.066C152.978 64.9913 152.82 64.9307 152.67 64.884ZM153.09 63.988C153.65 63.6987 154.075 63.3813 154.364 63.036C154.644 62.6907 154.784 62.3267 154.784 61.944C154.784 61.3653 154.621 60.9033 154.294 60.558C153.968 60.194 153.543 60.012 153.02 60.012C152.46 60.012 151.989 60.1893 151.606 60.544C151.224 60.908 151.032 61.3747 151.032 61.944C151.032 62.4013 151.224 62.8073 151.606 63.162C151.802 63.386 152.297 63.6613 153.09 63.988ZM156.1 67.334C156.1 68.1087 155.788 68.748 155.162 69.252C154.556 69.756 153.828 70.008 152.978 70.008C152.054 70.008 151.308 69.756 150.738 69.252C150.206 68.776 149.94 68.146 149.94 67.362C149.94 66.6433 150.197 66.0133 150.71 65.472C151.009 65.164 151.448 64.8607 152.026 64.562C151.532 64.3287 151.149 64.0487 150.878 63.722C150.496 63.2647 150.304 62.6813 150.304 61.972C150.304 61.2627 150.561 60.6793 151.074 60.222C151.588 59.746 152.236 59.508 153.02 59.508C153.954 59.508 154.658 59.816 155.134 60.432C155.433 60.8147 155.582 61.314 155.582 61.93C155.582 62.4433 155.363 62.9473 154.924 63.442C154.682 63.722 154.285 64.0113 153.734 64.31C154.388 64.6087 154.887 64.926 155.232 65.262C155.811 65.8127 156.1 66.5033 156.1 67.334Z" fill="#743215"/>
<path d="M196.934 67.768C197.354 67.768 197.564 68.006 197.564 68.482C197.564 68.79 197.648 69.0047 197.816 69.126C198.031 69.3313 198.339 69.434 198.74 69.434C199.011 69.434 199.296 69.336 199.594 69.14C199.958 68.9253 200.243 68.5847 200.448 68.118C200.551 67.8753 200.644 67.5953 200.728 67.278C200.822 66.9607 200.906 66.592 200.98 66.172C201.018 65.92 201.06 65.4767 201.106 64.842C201.004 65.0193 200.868 65.1827 200.7 65.332C200.542 65.472 200.364 65.598 200.168 65.71C199.674 65.99 199.146 66.13 198.586 66.13C197.886 66.13 197.294 65.8593 196.808 65.318C196.295 64.7487 196.038 63.9507 196.038 62.924C196.038 62.0093 196.29 61.2347 196.794 60.6C197.364 59.8907 198.115 59.536 199.048 59.536C199.907 59.536 200.584 59.844 201.078 60.46C201.265 60.684 201.419 60.922 201.54 61.174C201.671 61.4167 201.778 61.692 201.862 62C201.928 62.2893 201.979 62.6207 202.016 62.994C202.054 63.358 202.077 63.778 202.086 64.254V64.408C202.096 64.688 202.082 64.9727 202.044 65.262C202.007 65.542 201.956 65.8313 201.89 66.13C201.797 66.606 201.69 67.026 201.568 67.39C201.447 67.754 201.312 68.0713 201.162 68.342C200.537 69.4153 199.632 69.952 198.446 69.952C198.054 69.952 197.709 69.896 197.41 69.784C197.112 69.672 196.869 69.532 196.682 69.364C196.421 69.1027 196.29 68.804 196.29 68.468C196.29 68.0013 196.505 67.768 196.934 67.768ZM201.078 63.932V63.638C201.078 63.386 201.069 63.148 201.05 62.924C201.032 62.6907 201.004 62.4667 200.966 62.252C200.882 61.7573 200.738 61.3467 200.532 61.02C200.364 60.7213 200.164 60.488 199.93 60.32C199.697 60.152 199.403 60.068 199.048 60.068C198.722 60.068 198.442 60.1333 198.208 60.264C197.975 60.3947 197.77 60.586 197.592 60.838C197.219 61.3607 197.032 62.07 197.032 62.966C197.032 63.7407 197.186 64.3567 197.494 64.814C197.812 65.29 198.26 65.528 198.838 65.528C199.296 65.528 199.744 65.374 200.182 65.066C200.63 64.7487 200.929 64.3707 201.078 63.932Z" fill="#743215"/>
<path d="M244.217 69.728H239.695V69.266C240.377 69.266 240.857 69.2053 241.137 69.084C241.399 68.972 241.529 68.776 241.529 68.496V61.496C241.529 61.2813 241.473 61.1367 241.361 61.062C241.259 60.978 241.072 60.936 240.801 60.936H239.653V60.488C239.952 60.46 240.227 60.418 240.479 60.362C240.741 60.2967 240.979 60.222 241.193 60.138C241.52 60.0167 241.931 59.8067 242.425 59.508V68.496C242.425 68.6733 242.472 68.818 242.565 68.93C242.668 69.0327 242.855 69.112 243.125 69.168C243.256 69.196 243.41 69.2193 243.587 69.238C243.774 69.2567 243.984 69.266 244.217 69.266V69.728ZM252.213 64.73C252.213 66.2233 251.938 67.4413 251.387 68.384C250.799 69.4013 249.997 69.91 248.979 69.91C247.962 69.91 247.159 69.4013 246.571 68.384C246.021 67.4413 245.745 66.2233 245.745 64.73C245.745 63.2367 246.021 62.0187 246.571 61.076C247.159 60.068 247.962 59.564 248.979 59.564C249.997 59.564 250.799 60.068 251.387 61.076C251.938 62.0187 252.213 63.2367 252.213 64.73ZM251.247 64.73C251.247 63.4513 251.075 62.3967 250.729 61.566C250.328 60.5767 249.745 60.082 248.979 60.082C248.214 60.082 247.635 60.5767 247.243 61.566C246.889 62.4433 246.711 63.498 246.711 64.73C246.711 65.962 246.889 67.0167 247.243 67.894C247.635 68.8833 248.214 69.378 248.979 69.378C249.745 69.378 250.328 68.8833 250.729 67.894C251.075 67.0633 251.247 66.0087 251.247 64.73Z" fill="#743215"/>
<path d="M290.018 69.728H285.496V69.266C286.177 69.266 286.658 69.2053 286.938 69.084C287.199 68.972 287.33 68.776 287.33 68.496V61.496C287.33 61.2813 287.274 61.1367 287.162 61.062C287.059 60.978 286.873 60.936 286.602 60.936H285.454V60.488C285.753 60.46 286.028 60.418 286.28 60.362C286.541 60.2967 286.779 60.222 286.994 60.138C287.321 60.0167 287.731 59.8067 288.226 59.508V68.496C288.226 68.6733 288.273 68.818 288.366 68.93C288.469 69.0327 288.655 69.112 288.926 69.168C289.057 69.196 289.211 69.2193 289.388 69.238C289.575 69.2567 289.785 69.266 290.018 69.266V69.728ZM296.936 69.728H292.414V69.266C293.095 69.266 293.576 69.2053 293.856 69.084C294.117 68.972 294.248 68.776 294.248 68.496V61.496C294.248 61.2813 294.192 61.1367 294.08 61.062C293.977 60.978 293.791 60.936 293.52 60.936H292.372V60.488C292.671 60.46 292.946 60.418 293.198 60.362C293.459 60.2967 293.697 60.222 293.912 60.138C294.239 60.0167 294.649 59.8067 295.144 59.508V68.496C295.144 68.6733 295.191 68.818 295.284 68.93C295.387 69.0327 295.573 69.112 295.844 69.168C295.975 69.196 296.129 69.2193 296.306 69.238C296.493 69.2567 296.703 69.266 296.936 69.266V69.728Z" fill="#743215"/>
<path d="M14.2173 119.728H9.69525V119.266C10.3766 119.266 10.8573 119.205 11.1373 119.084C11.3986 118.972 11.5293 118.776 11.5293 118.496V111.496C11.5293 111.281 11.4733 111.137 11.3613 111.062C11.2586 110.978 11.0719 110.936 10.8013 110.936H9.65325V110.488C9.95192 110.46 10.2273 110.418 10.4793 110.362C10.7406 110.297 10.9786 110.222 11.1933 110.138C11.5199 110.017 11.9306 109.807 12.4253 109.508V118.496C12.4253 118.673 12.4719 118.818 12.5653 118.93C12.6679 119.033 12.8546 119.112 13.1253 119.168C13.2559 119.196 13.4099 119.219 13.5873 119.238C13.7739 119.257 13.9839 119.266 14.2173 119.266V119.728ZM22.0172 117.236C21.9052 117.656 21.7932 118.076 21.6812 118.496C21.5786 118.916 21.4712 119.336 21.3592 119.756H15.9132C15.9132 119.709 15.9086 119.672 15.8992 119.644C15.8992 119.616 15.8992 119.583 15.8992 119.546C15.8992 119.023 16.2212 118.351 16.8652 117.53C17.0612 117.287 17.2479 117.063 17.4252 116.858C17.6119 116.643 17.7986 116.438 17.9852 116.242C18.1812 116.046 18.3819 115.85 18.5872 115.654C18.7926 115.458 19.0212 115.248 19.2732 115.024C19.4786 114.837 19.6699 114.627 19.8472 114.394C20.0246 114.161 20.1786 113.918 20.3092 113.666C20.4399 113.405 20.5426 113.143 20.6172 112.882C20.7012 112.611 20.7432 112.355 20.7432 112.112C20.7432 111.841 20.7106 111.594 20.6452 111.37C20.5799 111.137 20.4679 110.936 20.3092 110.768C20.1226 110.563 19.9126 110.409 19.6792 110.306C19.4459 110.194 19.1659 110.138 18.8392 110.138C18.3539 110.138 17.9106 110.283 17.5092 110.572C17.3039 110.721 17.1406 110.885 17.0192 111.062C16.9072 111.239 16.8512 111.431 16.8512 111.636C16.8512 111.804 16.9166 111.967 17.0472 112.126C17.1126 112.201 17.1592 112.289 17.1872 112.392C17.2246 112.485 17.2432 112.616 17.2432 112.784C17.2432 112.933 17.1826 113.059 17.0612 113.162C16.9492 113.265 16.8046 113.316 16.6272 113.316C16.3566 113.316 16.1746 113.218 16.0812 113.022C15.9879 112.826 15.9412 112.551 15.9412 112.196C15.9412 111.683 16.1092 111.211 16.4452 110.782C16.6132 110.567 16.7999 110.376 17.0052 110.208C17.2106 110.04 17.4392 109.914 17.6912 109.83C18.0832 109.69 18.4986 109.62 18.9372 109.62C19.7586 109.62 20.4166 109.844 20.9112 110.292C21.4339 110.759 21.6952 111.403 21.6952 112.224C21.6952 112.532 21.6439 112.84 21.5412 113.148C21.4479 113.456 21.2939 113.759 21.0792 114.058C20.8552 114.385 20.5939 114.711 20.2952 115.038C19.9966 115.365 19.6699 115.691 19.3152 116.018C19.1379 116.177 18.9326 116.354 18.6992 116.55C18.4659 116.746 18.1999 116.984 17.9012 117.264C17.4346 117.703 17.0519 118.23 16.7532 118.846H19.7072C20.1739 118.846 20.5426 118.734 20.8132 118.51C21.0746 118.314 21.3546 117.857 21.6532 117.138L22.0172 117.236Z" fill="#743215"/>
<path d="M61.2173 119.728H56.6953V119.266C57.3766 119.266 57.8573 119.205 58.1373 119.084C58.3986 118.972 58.5293 118.776 58.5293 118.496V111.496C58.5293 111.281 58.4733 111.137 58.3613 111.062C58.2586 110.978 58.0719 110.936 57.8013 110.936H56.6533V110.488C56.9519 110.46 57.2273 110.418 57.4793 110.362C57.7406 110.297 57.9786 110.222 58.1933 110.138C58.5199 110.017 58.9306 109.807 59.4253 109.508V118.496C59.4253 118.673 59.4719 118.818 59.5653 118.93C59.6679 119.033 59.8546 119.112 60.1253 119.168C60.2559 119.196 60.4099 119.219 60.5873 119.238C60.7739 119.257 60.9839 119.266 61.2173 119.266V119.728ZM69.0032 116.928C69.0032 117.759 68.7419 118.449 68.2192 119C67.6032 119.644 66.7866 119.966 65.7692 119.966C65.3212 119.966 64.9246 119.905 64.5792 119.784C64.2432 119.663 63.9399 119.495 63.6692 119.28C63.4266 119.075 63.2399 118.837 63.1092 118.566C62.9786 118.286 62.9132 117.992 62.9132 117.684C62.9132 117.404 63.0112 117.185 63.2072 117.026C63.3006 116.942 63.4312 116.9 63.5992 116.9C64.0099 116.9 64.2152 117.124 64.2152 117.572C64.2152 117.637 64.2012 117.721 64.1732 117.824C64.1546 117.917 64.1452 117.992 64.1452 118.048C64.1452 118.188 64.1592 118.342 64.1872 118.51C64.2152 118.669 64.2666 118.79 64.3412 118.874C64.7146 119.247 65.1906 119.434 65.7692 119.434C66.0492 119.434 66.3479 119.364 66.6652 119.224C66.9826 119.084 67.2346 118.907 67.4212 118.692C67.8226 118.235 68.0232 117.633 68.0232 116.886C68.0232 116.307 67.7899 115.799 67.3232 115.36C67.0619 115.117 66.7866 114.945 66.4972 114.842C66.2079 114.73 65.8532 114.674 65.4332 114.674C65.3959 114.674 65.3539 114.679 65.3072 114.688C65.2699 114.688 65.2279 114.693 65.1812 114.702C65.1346 114.711 65.0972 114.721 65.0692 114.73C65.0412 114.73 65.0179 114.73 64.9992 114.73C64.8779 114.73 64.7939 114.665 64.7472 114.534C64.7286 114.478 64.7146 114.431 64.7052 114.394C64.7052 114.347 64.7052 114.301 64.7052 114.254C64.7052 114.114 64.7706 114.035 64.9012 114.016C64.9479 114.007 64.9899 114.007 65.0272 114.016C65.0646 114.016 65.1112 114.021 65.1672 114.03C65.2232 114.039 65.2699 114.049 65.3072 114.058C65.3539 114.058 65.3959 114.058 65.4332 114.058C65.6106 114.058 65.7926 114.035 65.9792 113.988C66.1752 113.932 66.3619 113.867 66.5392 113.792C66.8006 113.671 66.9966 113.545 67.1272 113.414C67.5566 113.05 67.7712 112.574 67.7712 111.986C67.7712 111.407 67.6219 110.955 67.3232 110.628C67.1646 110.46 66.9686 110.32 66.7352 110.208C66.5112 110.087 66.2732 110.021 66.0212 110.012H65.7832C65.7459 110.012 65.7086 110.012 65.6712 110.012C65.6339 110.012 65.5966 110.017 65.5592 110.026C65.1392 110.063 64.8126 110.199 64.5792 110.432C64.4392 110.572 64.3692 110.726 64.3692 110.894C64.3692 110.969 64.3832 111.048 64.4112 111.132C64.4392 111.207 64.4579 111.286 64.4672 111.37C64.4859 111.454 64.4952 111.524 64.4952 111.58C64.4952 111.804 64.4439 111.981 64.3412 112.112C64.2479 112.233 64.0986 112.294 63.8932 112.294L63.8792 112.28C63.4686 112.252 63.2632 112 63.2632 111.524C63.2632 110.992 63.5012 110.535 63.9772 110.152C64.4532 109.779 65.0086 109.569 65.6432 109.522C65.6899 109.513 65.7506 109.508 65.8252 109.508H66.0212C66.8332 109.517 67.4912 109.746 67.9952 110.194C68.4806 110.642 68.7232 111.239 68.7232 111.986C68.7232 112.602 68.5132 113.134 68.0932 113.582C67.7852 113.918 67.3932 114.179 66.9172 114.366C67.5239 114.553 67.9952 114.842 68.3312 115.234C68.7792 115.738 69.0032 116.303 69.0032 116.928Z" fill="#743215"/>
<path d="M106.217 119.728H101.695V119.266C102.377 119.266 102.857 119.205 103.137 119.084C103.399 118.972 103.529 118.776 103.529 118.496V111.496C103.529 111.281 103.473 111.137 103.361 111.062C103.259 110.978 103.072 110.936 102.801 110.936H101.653V110.488C101.952 110.46 102.227 110.418 102.479 110.362C102.741 110.297 102.979 110.222 103.193 110.138C103.52 110.017 103.931 109.807 104.425 109.508V118.496C104.425 118.673 104.472 118.818 104.565 118.93C104.668 119.033 104.855 119.112 105.125 119.168C105.256 119.196 105.41 119.219 105.587 119.238C105.774 119.257 105.984 119.266 106.217 119.266V119.728ZM114.409 117.222H112.617V118.888C112.617 119.103 112.706 119.243 112.883 119.308C113.061 119.383 113.397 119.42 113.891 119.42V119.882H110.391V119.434C110.923 119.434 111.287 119.392 111.483 119.308C111.642 119.233 111.721 119.093 111.721 118.888V117.25H107.759V116.704C108.487 115.472 109.211 114.254 109.929 113.05C110.657 111.837 111.385 110.609 112.113 109.368H112.617V116.676H114.409V117.222ZM111.721 116.676V111.258C111.161 112.163 110.611 113.069 110.069 113.974C109.537 114.87 108.991 115.771 108.431 116.676H111.721Z" fill="#743215"/>
<path d="M152.217 119.728H147.695V119.266C148.377 119.266 148.857 119.205 149.137 119.084C149.399 118.972 149.529 118.776 149.529 118.496V111.496C149.529 111.281 149.473 111.137 149.361 111.062C149.259 110.978 149.072 110.936 148.801 110.936H147.653V110.488C147.952 110.46 148.227 110.418 148.479 110.362C148.741 110.297 148.979 110.222 149.193 110.138C149.52 110.017 149.931 109.807 150.425 109.508V118.496C150.425 118.673 150.472 118.818 150.565 118.93C150.668 119.033 150.855 119.112 151.125 119.168C151.256 119.196 151.41 119.219 151.587 119.238C151.774 119.257 151.984 119.266 152.217 119.266V119.728ZM160.059 116.578C160.059 117.409 159.817 118.151 159.331 118.804C159.098 119.14 158.767 119.411 158.337 119.616C157.917 119.821 157.483 119.924 157.035 119.924C156.074 119.924 155.332 119.677 154.809 119.182C154.548 118.958 154.352 118.715 154.221 118.454C154.091 118.183 154.025 117.871 154.025 117.516C154.025 117.087 154.235 116.872 154.655 116.872C155.075 116.872 155.285 117.096 155.285 117.544C155.285 117.591 155.281 117.651 155.271 117.726C155.271 117.801 155.262 117.871 155.243 117.936C155.225 117.983 155.211 118.02 155.201 118.048C155.201 118.076 155.201 118.104 155.201 118.132C155.201 118.412 155.285 118.65 155.453 118.846C155.724 119.201 156.205 119.378 156.895 119.378C157.437 119.378 157.899 119.182 158.281 118.79C158.561 118.491 158.762 118.165 158.883 117.81C159.014 117.446 159.079 117.026 159.079 116.55C159.079 116.177 159.042 115.836 158.967 115.528C158.893 115.211 158.762 114.935 158.575 114.702C158.361 114.431 158.113 114.221 157.833 114.072C157.563 113.913 157.25 113.834 156.895 113.834C156.531 113.834 156.149 113.946 155.747 114.17C155.327 114.413 155.001 114.716 154.767 115.08C154.693 115.052 154.618 115.024 154.543 114.996C154.469 114.968 154.389 114.94 154.305 114.912L154.809 109.704H159.653C159.607 109.863 159.565 110.021 159.527 110.18C159.49 110.339 159.448 110.497 159.401 110.656H155.327C155.262 111.216 155.201 111.781 155.145 112.35C155.089 112.919 155.029 113.489 154.963 114.058C155.589 113.535 156.284 113.274 157.049 113.274C157.992 113.274 158.748 113.615 159.317 114.296C159.812 114.875 160.059 115.635 160.059 116.578Z" fill="#743215"/>
<path d="M198.217 119.728H193.695V119.266C194.377 119.266 194.857 119.205 195.137 119.084C195.399 118.972 195.529 118.776 195.529 118.496V111.496C195.529 111.281 195.473 111.137 195.361 111.062C195.259 110.978 195.072 110.936 194.801 110.936H193.653V110.488C193.952 110.46 194.227 110.418 194.479 110.362C194.741 110.297 194.979 110.222 195.193 110.138C195.52 110.017 195.931 109.807 196.425 109.508V118.496C196.425 118.673 196.472 118.818 196.565 118.93C196.668 119.033 196.855 119.112 197.125 119.168C197.256 119.196 197.41 119.219 197.587 119.238C197.774 119.257 197.984 119.266 198.217 119.266V119.728ZM206.031 116.662C206.031 117.689 205.719 118.515 205.093 119.14C204.571 119.7 203.894 119.98 203.063 119.98C202.55 119.98 202.079 119.863 201.649 119.63C201.229 119.406 200.903 119.07 200.669 118.622C200.408 118.118 200.226 117.586 200.123 117.026C200.021 116.457 199.969 115.873 199.969 115.276C199.969 114.539 200.053 113.806 200.221 113.078C200.389 112.322 200.627 111.678 200.935 111.146C201.598 110.063 202.489 109.522 203.609 109.522C204.216 109.522 204.739 109.676 205.177 109.984C205.607 110.273 205.821 110.614 205.821 111.006C205.821 111.519 205.616 111.776 205.205 111.776C204.785 111.776 204.575 111.58 204.575 111.188C204.575 111.151 204.575 111.109 204.575 111.062C204.575 111.015 204.58 110.955 204.589 110.88C204.599 110.777 204.599 110.707 204.589 110.67C204.58 110.623 204.566 110.581 204.547 110.544C204.37 110.227 204.011 110.068 203.469 110.068C202.769 110.068 202.172 110.525 201.677 111.44C201.547 111.673 201.435 111.944 201.341 112.252C201.257 112.56 201.178 112.91 201.103 113.302C201.01 113.731 200.963 114.179 200.963 114.646C201.187 114.357 201.477 114.1 201.831 113.876C202.335 113.568 202.877 113.414 203.455 113.414C204.249 113.414 204.869 113.68 205.317 114.212C205.793 114.772 206.031 115.589 206.031 116.662ZM205.079 116.536C205.079 115.659 204.911 115.015 204.575 114.604C204.202 114.175 203.745 113.96 203.203 113.96C202.961 113.96 202.709 114.021 202.447 114.142C202.195 114.263 201.971 114.403 201.775 114.562C201.383 114.898 201.113 115.285 200.963 115.724V115.85C200.963 116.923 201.117 117.768 201.425 118.384C201.593 118.72 201.808 118.986 202.069 119.182C202.331 119.387 202.657 119.49 203.049 119.49C203.74 119.49 204.244 119.233 204.561 118.72C204.907 118.207 205.079 117.479 205.079 116.536Z" fill="#743215"/>
<path d="M244.217 119.728H239.695V119.266C240.377 119.266 240.857 119.205 241.137 119.084C241.399 118.972 241.529 118.776 241.529 118.496V111.496C241.529 111.281 241.473 111.137 241.361 111.062C241.259 110.978 241.072 110.936 240.801 110.936H239.653V110.488C239.952 110.46 240.227 110.418 240.479 110.362C240.741 110.297 240.979 110.222 241.193 110.138C241.52 110.017 241.931 109.807 242.425 109.508V118.496C242.425 118.673 242.472 118.818 242.565 118.93C242.668 119.033 242.855 119.112 243.125 119.168C243.256 119.196 243.41 119.219 243.587 119.238C243.774 119.257 243.984 119.266 244.217 119.266V119.728ZM248.713 115.514C248.844 115.178 249.077 114.679 249.413 114.016C249.759 113.344 250.211 112.513 250.771 111.524C250.855 111.384 250.935 111.244 251.009 111.104C251.093 110.955 251.177 110.805 251.261 110.656H248.573C248.405 110.656 248.251 110.661 248.111 110.67C247.971 110.67 247.836 110.684 247.705 110.712C247.584 110.74 247.458 110.791 247.327 110.866C247.197 110.941 247.057 111.048 246.907 111.188C246.674 111.421 246.455 111.883 246.249 112.574C246.203 112.555 246.151 112.541 246.095 112.532C246.039 112.513 245.983 112.495 245.927 112.476C246.03 112.028 246.133 111.58 246.235 111.132C246.338 110.675 246.441 110.217 246.543 109.76H252.115V110.348C252.078 110.413 252.045 110.479 252.017 110.544C251.989 110.6 251.957 110.661 251.919 110.726C251.761 110.987 251.611 111.239 251.471 111.482C251.331 111.725 251.196 111.967 251.065 112.21C250.552 113.05 250.16 113.839 249.889 114.576C249.759 114.903 249.642 115.253 249.539 115.626C249.437 115.99 249.348 116.373 249.273 116.774C249.199 117.129 249.138 117.46 249.091 117.768C249.054 118.067 249.035 118.351 249.035 118.622V118.916C249.026 119.261 248.979 119.518 248.895 119.686C248.811 119.854 248.648 119.938 248.405 119.938C248.2 119.938 248.055 119.854 247.971 119.686C247.887 119.537 247.845 119.327 247.845 119.056V118.944C247.864 118.487 247.943 117.973 248.083 117.404C248.233 116.835 248.443 116.205 248.713 115.514Z" fill="#743215"/>
<path d="M290.217 119.728H285.695V119.266C286.377 119.266 286.857 119.205 287.137 119.084C287.399 118.972 287.529 118.776 287.529 118.496V111.496C287.529 111.281 287.473 111.137 287.361 111.062C287.259 110.978 287.072 110.936 286.801 110.936H285.653V110.488C285.952 110.46 286.227 110.418 286.479 110.362C286.741 110.297 286.979 110.222 287.193 110.138C287.52 110.017 287.931 109.807 288.425 109.508V118.496C288.425 118.673 288.472 118.818 288.565 118.93C288.668 119.033 288.855 119.112 289.125 119.168C289.256 119.196 289.41 119.219 289.587 119.238C289.774 119.257 289.984 119.266 290.217 119.266V119.728ZM294.629 114.884C294.331 115.043 294.065 115.211 293.831 115.388C293.607 115.565 293.411 115.761 293.243 115.976C292.982 116.293 292.851 116.755 292.851 117.362C292.851 117.978 293.047 118.482 293.439 118.874C293.841 119.275 294.349 119.476 294.965 119.476C295.619 119.476 296.165 119.28 296.603 118.888C297.051 118.487 297.275 117.983 297.275 117.376C297.275 117.049 297.196 116.76 297.037 116.508C296.888 116.247 296.673 116.009 296.393 115.794C296.309 115.729 296.197 115.654 296.057 115.57C295.917 115.486 295.768 115.402 295.609 115.318C295.451 115.225 295.283 115.141 295.105 115.066C294.937 114.991 294.779 114.931 294.629 114.884ZM295.049 113.988C295.609 113.699 296.034 113.381 296.323 113.036C296.603 112.691 296.743 112.327 296.743 111.944C296.743 111.365 296.58 110.903 296.253 110.558C295.927 110.194 295.502 110.012 294.979 110.012C294.419 110.012 293.948 110.189 293.565 110.544C293.183 110.908 292.991 111.375 292.991 111.944C292.991 112.401 293.183 112.807 293.565 113.162C293.761 113.386 294.256 113.661 295.049 113.988ZM298.059 117.334C298.059 118.109 297.747 118.748 297.121 119.252C296.515 119.756 295.787 120.008 294.937 120.008C294.013 120.008 293.267 119.756 292.697 119.252C292.165 118.776 291.899 118.146 291.899 117.362C291.899 116.643 292.156 116.013 292.669 115.472C292.968 115.164 293.407 114.861 293.985 114.562C293.491 114.329 293.108 114.049 292.837 113.722C292.455 113.265 292.263 112.681 292.263 111.972C292.263 111.263 292.52 110.679 293.033 110.222C293.547 109.746 294.195 109.508 294.979 109.508C295.913 109.508 296.617 109.816 297.093 110.432C297.392 110.815 297.541 111.314 297.541 111.93C297.541 112.443 297.322 112.947 296.883 113.442C296.641 113.722 296.244 114.011 295.693 114.31C296.347 114.609 296.846 114.926 297.191 115.262C297.77 115.813 298.059 116.503 298.059 117.334Z" fill="#743215"/>
<path d="M15.2173 169.728H10.6953V169.266C11.3766 169.266 11.8573 169.205 12.1373 169.084C12.3986 168.972 12.5293 168.776 12.5293 168.496V161.496C12.5293 161.281 12.4733 161.137 12.3613 161.062C12.2586 160.978 12.0719 160.936 11.8013 160.936H10.6533V160.488C10.9519 160.46 11.2273 160.418 11.4793 160.362C11.7406 160.297 11.9786 160.222 12.1933 160.138C12.5199 160.017 12.9306 159.807 13.4253 159.508V168.496C13.4253 168.673 13.4719 168.818 13.5653 168.93C13.6679 169.033 13.8546 169.112 14.1253 169.168C14.2559 169.196 14.4099 169.219 14.5873 169.238C14.7739 169.257 14.9839 169.266 15.2173 169.266V169.728ZM17.8932 167.768C18.3132 167.768 18.5232 168.006 18.5232 168.482C18.5232 168.79 18.6072 169.005 18.7752 169.126C18.9899 169.331 19.2979 169.434 19.6992 169.434C19.9699 169.434 20.2546 169.336 20.5532 169.14C20.9172 168.925 21.2019 168.585 21.4072 168.118C21.5099 167.875 21.6032 167.595 21.6872 167.278C21.7806 166.961 21.8646 166.592 21.9392 166.172C21.9766 165.92 22.0186 165.477 22.0652 164.842C21.9626 165.019 21.8272 165.183 21.6592 165.332C21.5006 165.472 21.3232 165.598 21.1272 165.71C20.6326 165.99 20.1052 166.13 19.5452 166.13C18.8452 166.13 18.2526 165.859 17.7672 165.318C17.2539 164.749 16.9972 163.951 16.9972 162.924C16.9972 162.009 17.2492 161.235 17.7532 160.6C18.3226 159.891 19.0739 159.536 20.0072 159.536C20.8659 159.536 21.5426 159.844 22.0372 160.46C22.2239 160.684 22.3779 160.922 22.4992 161.174C22.6299 161.417 22.7372 161.692 22.8212 162C22.8866 162.289 22.9379 162.621 22.9752 162.994C23.0126 163.358 23.0359 163.778 23.0452 164.254V164.408C23.0546 164.688 23.0406 164.973 23.0032 165.262C22.9659 165.542 22.9146 165.831 22.8492 166.13C22.7559 166.606 22.6486 167.026 22.5272 167.39C22.4059 167.754 22.2706 168.071 22.1212 168.342C21.4959 169.415 20.5906 169.952 19.4052 169.952C19.0132 169.952 18.6679 169.896 18.3692 169.784C18.0706 169.672 17.8279 169.532 17.6412 169.364C17.3799 169.103 17.2492 168.804 17.2492 168.468C17.2492 168.001 17.4639 167.768 17.8932 167.768ZM22.0372 163.932V163.638C22.0372 163.386 22.0279 163.148 22.0092 162.924C21.9906 162.691 21.9626 162.467 21.9252 162.252C21.8412 161.757 21.6966 161.347 21.4912 161.02C21.3232 160.721 21.1226 160.488 20.8892 160.32C20.6559 160.152 20.3619 160.068 20.0072 160.068C19.6806 160.068 19.4006 160.133 19.1672 160.264C18.9339 160.395 18.7286 160.586 18.5512 160.838C18.1779 161.361 17.9912 162.07 17.9912 162.966C17.9912 163.741 18.1452 164.357 18.4532 164.814C18.7706 165.29 19.2186 165.528 19.7972 165.528C20.2546 165.528 20.7026 165.374 21.1412 165.066C21.5892 164.749 21.8879 164.371 22.0372 163.932Z" fill="#743215"/>
<path d="M61.2985 167.236C61.1865 167.656 61.0745 168.076 60.9625 168.496C60.8598 168.916 60.7525 169.336 60.6405 169.756H55.1945C55.1945 169.709 55.1898 169.672 55.1805 169.644C55.1805 169.616 55.1805 169.583 55.1805 169.546C55.1805 169.023 55.5025 168.351 56.1465 167.53C56.3425 167.287 56.5291 167.063 56.7065 166.858C56.8931 166.643 57.0798 166.438 57.2665 166.242C57.4625 166.046 57.6631 165.85 57.8685 165.654C58.0738 165.458 58.3025 165.248 58.5545 165.024C58.7598 164.837 58.9511 164.627 59.1285 164.394C59.3058 164.161 59.4598 163.918 59.5905 163.666C59.7211 163.405 59.8238 163.143 59.8985 162.882C59.9825 162.611 60.0245 162.355 60.0245 162.112C60.0245 161.841 59.9918 161.594 59.9265 161.37C59.8611 161.137 59.7491 160.936 59.5905 160.768C59.4038 160.563 59.1938 160.409 58.9605 160.306C58.7271 160.194 58.4471 160.138 58.1205 160.138C57.6351 160.138 57.1918 160.283 56.7905 160.572C56.5851 160.721 56.4218 160.885 56.3005 161.062C56.1885 161.239 56.1325 161.431 56.1325 161.636C56.1325 161.804 56.1978 161.967 56.3285 162.126C56.3938 162.201 56.4405 162.289 56.4685 162.392C56.5058 162.485 56.5245 162.616 56.5245 162.784C56.5245 162.933 56.4638 163.059 56.3425 163.162C56.2305 163.265 56.0858 163.316 55.9085 163.316C55.6378 163.316 55.4558 163.218 55.3625 163.022C55.2691 162.826 55.2225 162.551 55.2225 162.196C55.2225 161.683 55.3905 161.211 55.7265 160.782C55.8945 160.567 56.0811 160.376 56.2865 160.208C56.4918 160.04 56.7205 159.914 56.9725 159.83C57.3645 159.69 57.7798 159.62 58.2185 159.62C59.0398 159.62 59.6978 159.844 60.1925 160.292C60.7151 160.759 60.9765 161.403 60.9765 162.224C60.9765 162.532 60.9251 162.84 60.8225 163.148C60.7291 163.456 60.5751 163.759 60.3605 164.058C60.1365 164.385 59.8751 164.711 59.5765 165.038C59.2778 165.365 58.9511 165.691 58.5965 166.018C58.4191 166.177 58.2138 166.354 57.9805 166.55C57.7471 166.746 57.4811 166.984 57.1825 167.264C56.7158 167.703 56.3331 168.23 56.0345 168.846H58.9885C59.4551 168.846 59.8238 168.734 60.0945 168.51C60.3558 168.314 60.6358 167.857 60.9345 167.138L61.2985 167.236ZM69.014 164.73C69.014 166.223 68.7387 167.441 68.188 168.384C67.6 169.401 66.7973 169.91 65.78 169.91C64.7627 169.91 63.96 169.401 63.372 168.384C62.8213 167.441 62.546 166.223 62.546 164.73C62.546 163.237 62.8213 162.019 63.372 161.076C63.96 160.068 64.7627 159.564 65.78 159.564C66.7973 159.564 67.6 160.068 68.188 161.076C68.7387 162.019 69.014 163.237 69.014 164.73ZM68.048 164.73C68.048 163.451 67.8753 162.397 67.53 161.566C67.1287 160.577 66.5453 160.082 65.78 160.082C65.0147 160.082 64.436 160.577 64.044 161.566C63.6893 162.443 63.512 163.498 63.512 164.73C63.512 165.962 63.6893 167.017 64.044 167.894C64.436 168.883 65.0147 169.378 65.78 169.378C66.5453 169.378 67.1287 168.883 67.53 167.894C67.8753 167.063 68.048 166.009 68.048 164.73Z" fill="#743215"/>
<path d="M107.099 167.236C106.987 167.656 106.875 168.076 106.763 168.496C106.661 168.916 106.553 169.336 106.441 169.756H100.995C100.995 169.709 100.991 169.672 100.981 169.644C100.981 169.616 100.981 169.583 100.981 169.546C100.981 169.023 101.303 168.351 101.947 167.53C102.143 167.287 102.33 167.063 102.507 166.858C102.694 166.643 102.881 166.438 103.067 166.242C103.263 166.046 103.464 165.85 103.669 165.654C103.875 165.458 104.103 165.248 104.355 165.024C104.561 164.837 104.752 164.627 104.929 164.394C105.107 164.161 105.261 163.918 105.391 163.666C105.522 163.405 105.625 163.143 105.699 162.882C105.783 162.611 105.825 162.355 105.825 162.112C105.825 161.841 105.793 161.594 105.727 161.37C105.662 161.137 105.55 160.936 105.391 160.768C105.205 160.563 104.995 160.409 104.761 160.306C104.528 160.194 104.248 160.138 103.921 160.138C103.436 160.138 102.993 160.283 102.591 160.572C102.386 160.721 102.223 160.885 102.101 161.062C101.989 161.239 101.933 161.431 101.933 161.636C101.933 161.804 101.999 161.967 102.129 162.126C102.195 162.201 102.241 162.289 102.269 162.392C102.307 162.485 102.325 162.616 102.325 162.784C102.325 162.933 102.265 163.059 102.143 163.162C102.031 163.265 101.887 163.316 101.709 163.316C101.439 163.316 101.257 163.218 101.163 163.022C101.07 162.826 101.023 162.551 101.023 162.196C101.023 161.683 101.191 161.211 101.527 160.782C101.695 160.567 101.882 160.376 102.087 160.208C102.293 160.04 102.521 159.914 102.773 159.83C103.165 159.69 103.581 159.62 104.019 159.62C104.841 159.62 105.499 159.844 105.993 160.292C106.516 160.759 106.777 161.403 106.777 162.224C106.777 162.532 106.726 162.84 106.623 163.148C106.53 163.456 106.376 163.759 106.161 164.058C105.937 164.385 105.676 164.711 105.377 165.038C105.079 165.365 104.752 165.691 104.397 166.018C104.22 166.177 104.015 166.354 103.781 166.55C103.548 166.746 103.282 166.984 102.983 167.264C102.517 167.703 102.134 168.23 101.835 168.846H104.789C105.256 168.846 105.625 168.734 105.895 168.51C106.157 168.314 106.437 167.857 106.735 167.138L107.099 167.236ZM113.737 169.728H109.215V169.266C109.896 169.266 110.377 169.205 110.657 169.084C110.918 168.972 111.049 168.776 111.049 168.496V161.496C111.049 161.281 110.993 161.137 110.881 161.062C110.778 160.978 110.591 160.936 110.321 160.936H109.173V160.488C109.471 160.46 109.747 160.418 109.999 160.362C110.26 160.297 110.498 160.222 110.713 160.138C111.039 160.017 111.45 159.807 111.945 159.508V168.496C111.945 168.673 111.991 168.818 112.085 168.93C112.187 169.033 112.374 169.112 112.645 169.168C112.775 169.196 112.929 169.219 113.107 169.238C113.293 169.257 113.503 169.266 113.737 169.266V169.728Z" fill="#743215"/>
<path d="M152.298 167.236C152.186 167.656 152.074 168.076 151.962 168.496C151.86 168.916 151.752 169.336 151.64 169.756H146.194C146.194 169.709 146.19 169.672 146.18 169.644C146.18 169.616 146.18 169.583 146.18 169.546C146.18 169.023 146.502 168.351 147.146 167.53C147.342 167.287 147.529 167.063 147.706 166.858C147.893 166.643 148.08 166.438 148.266 166.242C148.462 166.046 148.663 165.85 148.868 165.654C149.074 165.458 149.302 165.248 149.554 165.024C149.76 164.837 149.951 164.627 150.128 164.394C150.306 164.161 150.46 163.918 150.59 163.666C150.721 163.405 150.824 163.143 150.898 162.882C150.982 162.611 151.024 162.355 151.024 162.112C151.024 161.841 150.992 161.594 150.926 161.37C150.861 161.137 150.749 160.936 150.59 160.768C150.404 160.563 150.194 160.409 149.96 160.306C149.727 160.194 149.447 160.138 149.12 160.138C148.635 160.138 148.192 160.283 147.79 160.572C147.585 160.721 147.422 160.885 147.3 161.062C147.188 161.239 147.132 161.431 147.132 161.636C147.132 161.804 147.198 161.967 147.328 162.126C147.394 162.201 147.44 162.289 147.468 162.392C147.506 162.485 147.524 162.616 147.524 162.784C147.524 162.933 147.464 163.059 147.342 163.162C147.23 163.265 147.086 163.316 146.908 163.316C146.638 163.316 146.456 163.218 146.362 163.022C146.269 162.826 146.222 162.551 146.222 162.196C146.222 161.683 146.39 161.211 146.726 160.782C146.894 160.567 147.081 160.376 147.286 160.208C147.492 160.04 147.72 159.914 147.972 159.83C148.364 159.69 148.78 159.62 149.218 159.62C150.04 159.62 150.698 159.844 151.192 160.292C151.715 160.759 151.976 161.403 151.976 162.224C151.976 162.532 151.925 162.84 151.822 163.148C151.729 163.456 151.575 163.759 151.36 164.058C151.136 164.385 150.875 164.711 150.576 165.038C150.278 165.365 149.951 165.691 149.596 166.018C149.419 166.177 149.214 166.354 148.98 166.55C148.747 166.746 148.481 166.984 148.182 167.264C147.716 167.703 147.333 168.23 147.034 168.846H149.988C150.455 168.846 150.824 168.734 151.094 168.51C151.356 168.314 151.636 167.857 151.934 167.138L152.298 167.236ZM159.818 167.236C159.706 167.656 159.594 168.076 159.482 168.496C159.379 168.916 159.272 169.336 159.16 169.756H153.714C153.714 169.709 153.709 169.672 153.7 169.644C153.7 169.616 153.7 169.583 153.7 169.546C153.7 169.023 154.022 168.351 154.666 167.53C154.862 167.287 155.049 167.063 155.226 166.858C155.413 166.643 155.599 166.438 155.786 166.242C155.982 166.046 156.183 165.85 156.388 165.654C156.593 165.458 156.822 165.248 157.074 165.024C157.279 164.837 157.471 164.627 157.648 164.394C157.825 164.161 157.979 163.918 158.11 163.666C158.241 163.405 158.343 163.143 158.418 162.882C158.502 162.611 158.544 162.355 158.544 162.112C158.544 161.841 158.511 161.594 158.446 161.37C158.381 161.137 158.269 160.936 158.11 160.768C157.923 160.563 157.713 160.409 157.48 160.306C157.247 160.194 156.967 160.138 156.64 160.138C156.155 160.138 155.711 160.283 155.31 160.572C155.105 160.721 154.941 160.885 154.82 161.062C154.708 161.239 154.652 161.431 154.652 161.636C154.652 161.804 154.717 161.967 154.848 162.126C154.913 162.201 154.96 162.289 154.988 162.392C155.025 162.485 155.044 162.616 155.044 162.784C155.044 162.933 154.983 163.059 154.862 163.162C154.75 163.265 154.605 163.316 154.428 163.316C154.157 163.316 153.975 163.218 153.882 163.022C153.789 162.826 153.742 162.551 153.742 162.196C153.742 161.683 153.91 161.211 154.246 160.782C154.414 160.567 154.601 160.376 154.806 160.208C155.011 160.04 155.24 159.914 155.492 159.83C155.884 159.69 156.299 159.62 156.738 159.62C157.559 159.62 158.217 159.844 158.712 160.292C159.235 160.759 159.496 161.403 159.496 162.224C159.496 162.532 159.445 162.84 159.342 163.148C159.249 163.456 159.095 163.759 158.88 164.058C158.656 164.385 158.395 164.711 158.096 165.038C157.797 165.365 157.471 165.691 157.116 166.018C156.939 166.177 156.733 166.354 156.5 166.55C156.267 166.746 156.001 166.984 155.702 167.264C155.235 167.703 154.853 168.23 154.554 168.846H157.508C157.975 168.846 158.343 168.734 158.614 168.51C158.875 168.314 159.155 167.857 159.454 167.138L159.818 167.236Z" fill="#743215"/>
<path d="M198.298 167.236C198.186 167.656 198.074 168.076 197.962 168.496C197.86 168.916 197.752 169.336 197.64 169.756H192.194C192.194 169.709 192.19 169.672 192.18 169.644C192.18 169.616 192.18 169.583 192.18 169.546C192.18 169.023 192.502 168.351 193.146 167.53C193.342 167.287 193.529 167.063 193.706 166.858C193.893 166.643 194.08 166.438 194.266 166.242C194.462 166.046 194.663 165.85 194.868 165.654C195.074 165.458 195.302 165.248 195.554 165.024C195.76 164.837 195.951 164.627 196.128 164.394C196.306 164.161 196.46 163.918 196.59 163.666C196.721 163.405 196.824 163.143 196.898 162.882C196.982 162.611 197.024 162.355 197.024 162.112C197.024 161.841 196.992 161.594 196.926 161.37C196.861 161.137 196.749 160.936 196.59 160.768C196.404 160.563 196.194 160.409 195.96 160.306C195.727 160.194 195.447 160.138 195.12 160.138C194.635 160.138 194.192 160.283 193.79 160.572C193.585 160.721 193.422 160.885 193.3 161.062C193.188 161.239 193.132 161.431 193.132 161.636C193.132 161.804 193.198 161.967 193.328 162.126C193.394 162.201 193.44 162.289 193.468 162.392C193.506 162.485 193.524 162.616 193.524 162.784C193.524 162.933 193.464 163.059 193.342 163.162C193.23 163.265 193.086 163.316 192.908 163.316C192.638 163.316 192.456 163.218 192.362 163.022C192.269 162.826 192.222 162.551 192.222 162.196C192.222 161.683 192.39 161.211 192.726 160.782C192.894 160.567 193.081 160.376 193.286 160.208C193.492 160.04 193.72 159.914 193.972 159.83C194.364 159.69 194.78 159.62 195.218 159.62C196.04 159.62 196.698 159.844 197.192 160.292C197.715 160.759 197.976 161.403 197.976 162.224C197.976 162.532 197.925 162.84 197.822 163.148C197.729 163.456 197.575 163.759 197.36 164.058C197.136 164.385 196.875 164.711 196.576 165.038C196.278 165.365 195.951 165.691 195.596 166.018C195.419 166.177 195.214 166.354 194.98 166.55C194.747 166.746 194.481 166.984 194.182 167.264C193.716 167.703 193.333 168.23 193.034 168.846H195.988C196.455 168.846 196.824 168.734 197.094 168.51C197.356 168.314 197.636 167.857 197.934 167.138L198.298 167.236ZM205.804 166.928C205.804 167.759 205.543 168.449 205.02 169C204.404 169.644 203.587 169.966 202.57 169.966C202.122 169.966 201.725 169.905 201.38 169.784C201.044 169.663 200.741 169.495 200.47 169.28C200.227 169.075 200.041 168.837 199.91 168.566C199.779 168.286 199.714 167.992 199.714 167.684C199.714 167.404 199.812 167.185 200.008 167.026C200.101 166.942 200.232 166.9 200.4 166.9C200.811 166.9 201.016 167.124 201.016 167.572C201.016 167.637 201.002 167.721 200.974 167.824C200.955 167.917 200.946 167.992 200.946 168.048C200.946 168.188 200.96 168.342 200.988 168.51C201.016 168.669 201.067 168.79 201.142 168.874C201.515 169.247 201.991 169.434 202.57 169.434C202.85 169.434 203.149 169.364 203.466 169.224C203.783 169.084 204.035 168.907 204.222 168.692C204.623 168.235 204.824 167.633 204.824 166.886C204.824 166.307 204.591 165.799 204.124 165.36C203.863 165.117 203.587 164.945 203.298 164.842C203.009 164.73 202.654 164.674 202.234 164.674C202.197 164.674 202.155 164.679 202.108 164.688C202.071 164.688 202.029 164.693 201.982 164.702C201.935 164.711 201.898 164.721 201.87 164.73C201.842 164.73 201.819 164.73 201.8 164.73C201.679 164.73 201.595 164.665 201.548 164.534C201.529 164.478 201.515 164.431 201.506 164.394C201.506 164.347 201.506 164.301 201.506 164.254C201.506 164.114 201.571 164.035 201.702 164.016C201.749 164.007 201.791 164.007 201.828 164.016C201.865 164.016 201.912 164.021 201.968 164.03C202.024 164.039 202.071 164.049 202.108 164.058C202.155 164.058 202.197 164.058 202.234 164.058C202.411 164.058 202.593 164.035 202.78 163.988C202.976 163.932 203.163 163.867 203.34 163.792C203.601 163.671 203.797 163.545 203.928 163.414C204.357 163.05 204.572 162.574 204.572 161.986C204.572 161.407 204.423 160.955 204.124 160.628C203.965 160.46 203.769 160.32 203.536 160.208C203.312 160.087 203.074 160.021 202.822 160.012H202.584C202.547 160.012 202.509 160.012 202.472 160.012C202.435 160.012 202.397 160.017 202.36 160.026C201.94 160.063 201.613 160.199 201.38 160.432C201.24 160.572 201.17 160.726 201.17 160.894C201.17 160.969 201.184 161.048 201.212 161.132C201.24 161.207 201.259 161.286 201.268 161.37C201.287 161.454 201.296 161.524 201.296 161.58C201.296 161.804 201.245 161.981 201.142 162.112C201.049 162.233 200.899 162.294 200.694 162.294L200.68 162.28C200.269 162.252 200.064 162 200.064 161.524C200.064 160.992 200.302 160.535 200.778 160.152C201.254 159.779 201.809 159.569 202.444 159.522C202.491 159.513 202.551 159.508 202.626 159.508H202.822C203.634 159.517 204.292 159.746 204.796 160.194C205.281 160.642 205.524 161.239 205.524 161.986C205.524 162.602 205.314 163.134 204.894 163.582C204.586 163.918 204.194 164.179 203.718 164.366C204.325 164.553 204.796 164.842 205.132 165.234C205.58 165.738 205.804 166.303 205.804 166.928Z" fill="#743215"/>
<path d="M244.298 167.236C244.186 167.656 244.074 168.076 243.962 168.496C243.86 168.916 243.752 169.336 243.64 169.756H238.194C238.194 169.709 238.19 169.672 238.18 169.644C238.18 169.616 238.18 169.583 238.18 169.546C238.18 169.023 238.502 168.351 239.146 167.53C239.342 167.287 239.529 167.063 239.706 166.858C239.893 166.643 240.08 166.438 240.266 166.242C240.462 166.046 240.663 165.85 240.868 165.654C241.074 165.458 241.302 165.248 241.554 165.024C241.76 164.837 241.951 164.627 242.128 164.394C242.306 164.161 242.46 163.918 242.59 163.666C242.721 163.405 242.824 163.143 242.898 162.882C242.982 162.611 243.024 162.355 243.024 162.112C243.024 161.841 242.992 161.594 242.926 161.37C242.861 161.137 242.749 160.936 242.59 160.768C242.404 160.563 242.194 160.409 241.96 160.306C241.727 160.194 241.447 160.138 241.12 160.138C240.635 160.138 240.192 160.283 239.79 160.572C239.585 160.721 239.422 160.885 239.3 161.062C239.188 161.239 239.132 161.431 239.132 161.636C239.132 161.804 239.198 161.967 239.328 162.126C239.394 162.201 239.44 162.289 239.468 162.392C239.506 162.485 239.524 162.616 239.524 162.784C239.524 162.933 239.464 163.059 239.342 163.162C239.23 163.265 239.086 163.316 238.908 163.316C238.638 163.316 238.456 163.218 238.362 163.022C238.269 162.826 238.222 162.551 238.222 162.196C238.222 161.683 238.39 161.211 238.726 160.782C238.894 160.567 239.081 160.376 239.286 160.208C239.492 160.04 239.72 159.914 239.972 159.83C240.364 159.69 240.78 159.62 241.218 159.62C242.04 159.62 242.698 159.844 243.192 160.292C243.715 160.759 243.976 161.403 243.976 162.224C243.976 162.532 243.925 162.84 243.822 163.148C243.729 163.456 243.575 163.759 243.36 164.058C243.136 164.385 242.875 164.711 242.576 165.038C242.278 165.365 241.951 165.691 241.596 166.018C241.419 166.177 241.214 166.354 240.98 166.55C240.747 166.746 240.481 166.984 240.182 167.264C239.716 167.703 239.333 168.23 239.034 168.846H241.988C242.455 168.846 242.824 168.734 243.094 168.51C243.356 168.314 243.636 167.857 243.934 167.138L244.298 167.236ZM252.21 167.222H250.418V168.888C250.418 169.103 250.507 169.243 250.684 169.308C250.861 169.383 251.197 169.42 251.692 169.42V169.882H248.192V169.434C248.724 169.434 249.088 169.392 249.284 169.308C249.443 169.233 249.522 169.093 249.522 168.888V167.25H245.56V166.704C246.288 165.472 247.011 164.254 247.73 163.05C248.458 161.837 249.186 160.609 249.914 159.368H250.418V166.676H252.21V167.222ZM249.522 166.676V161.258C248.962 162.163 248.411 163.069 247.87 163.974C247.338 164.87 246.792 165.771 246.232 166.676H249.522Z" fill="#743215"/>
<path d="M290.298 167.236C290.186 167.656 290.074 168.076 289.962 168.496C289.86 168.916 289.752 169.336 289.64 169.756H284.194C284.194 169.709 284.19 169.672 284.18 169.644C284.18 169.616 284.18 169.583 284.18 169.546C284.18 169.023 284.502 168.351 285.146 167.53C285.342 167.287 285.529 167.063 285.706 166.858C285.893 166.643 286.08 166.438 286.266 166.242C286.462 166.046 286.663 165.85 286.868 165.654C287.074 165.458 287.302 165.248 287.554 165.024C287.76 164.837 287.951 164.627 288.128 164.394C288.306 164.161 288.46 163.918 288.59 163.666C288.721 163.405 288.824 163.143 288.898 162.882C288.982 162.611 289.024 162.355 289.024 162.112C289.024 161.841 288.992 161.594 288.926 161.37C288.861 161.137 288.749 160.936 288.59 160.768C288.404 160.563 288.194 160.409 287.96 160.306C287.727 160.194 287.447 160.138 287.12 160.138C286.635 160.138 286.192 160.283 285.79 160.572C285.585 160.721 285.422 160.885 285.3 161.062C285.188 161.239 285.132 161.431 285.132 161.636C285.132 161.804 285.198 161.967 285.328 162.126C285.394 162.201 285.44 162.289 285.468 162.392C285.506 162.485 285.524 162.616 285.524 162.784C285.524 162.933 285.464 163.059 285.342 163.162C285.23 163.265 285.086 163.316 284.908 163.316C284.638 163.316 284.456 163.218 284.362 163.022C284.269 162.826 284.222 162.551 284.222 162.196C284.222 161.683 284.39 161.211 284.726 160.782C284.894 160.567 285.081 160.376 285.286 160.208C285.492 160.04 285.72 159.914 285.972 159.83C286.364 159.69 286.78 159.62 287.218 159.62C288.04 159.62 288.698 159.844 289.192 160.292C289.715 160.759 289.976 161.403 289.976 162.224C289.976 162.532 289.925 162.84 289.822 163.148C289.729 163.456 289.575 163.759 289.36 164.058C289.136 164.385 288.875 164.711 288.576 165.038C288.278 165.365 287.951 165.691 287.596 166.018C287.419 166.177 287.214 166.354 286.98 166.55C286.747 166.746 286.481 166.984 286.182 167.264C285.716 167.703 285.333 168.23 285.034 168.846H287.988C288.455 168.846 288.824 168.734 289.094 168.51C289.356 168.314 289.636 167.857 289.934 167.138L290.298 167.236ZM297.86 166.578C297.86 167.409 297.617 168.151 297.132 168.804C296.899 169.14 296.567 169.411 296.138 169.616C295.718 169.821 295.284 169.924 294.836 169.924C293.875 169.924 293.133 169.677 292.61 169.182C292.349 168.958 292.153 168.715 292.022 168.454C291.891 168.183 291.826 167.871 291.826 167.516C291.826 167.087 292.036 166.872 292.456 166.872C292.876 166.872 293.086 167.096 293.086 167.544C293.086 167.591 293.081 167.651 293.072 167.726C293.072 167.801 293.063 167.871 293.044 167.936C293.025 167.983 293.011 168.02 293.002 168.048C293.002 168.076 293.002 168.104 293.002 168.132C293.002 168.412 293.086 168.65 293.254 168.846C293.525 169.201 294.005 169.378 294.696 169.378C295.237 169.378 295.699 169.182 296.082 168.79C296.362 168.491 296.563 168.165 296.684 167.81C296.815 167.446 296.88 167.026 296.88 166.55C296.88 166.177 296.843 165.836 296.768 165.528C296.693 165.211 296.563 164.935 296.376 164.702C296.161 164.431 295.914 164.221 295.634 164.072C295.363 163.913 295.051 163.834 294.696 163.834C294.332 163.834 293.949 163.946 293.548 164.17C293.128 164.413 292.801 164.716 292.568 165.08C292.493 165.052 292.419 165.024 292.344 164.996C292.269 164.968 292.19 164.94 292.106 164.912L292.61 159.704H297.454C297.407 159.863 297.365 160.021 297.328 160.18C297.291 160.339 297.249 160.497 297.202 160.656H293.128C293.063 161.216 293.002 161.781 292.946 162.35C292.89 162.919 292.829 163.489 292.764 164.058C293.389 163.535 294.085 163.274 294.85 163.274C295.793 163.274 296.549 163.615 297.118 164.296C297.613 164.875 297.86 165.635 297.86 166.578Z" fill="#743215"/>
<path d="M15.2985 217.236C15.1865 217.656 15.0745 218.076 14.9625 218.496C14.8598 218.916 14.7525 219.336 14.6405 219.756H9.19447C9.19447 219.709 9.1898 219.672 9.18047 219.644C9.18047 219.616 9.18047 219.583 9.18047 219.546C9.18047 219.023 9.50247 218.351 10.1465 217.53C10.3425 217.287 10.5291 217.063 10.7065 216.858C10.8931 216.643 11.0798 216.438 11.2665 216.242C11.4625 216.046 11.6631 215.85 11.8685 215.654C12.0738 215.458 12.3025 215.248 12.5545 215.024C12.7598 214.837 12.9511 214.627 13.1285 214.394C13.3058 214.161 13.4598 213.918 13.5905 213.666C13.7211 213.405 13.8238 213.143 13.8985 212.882C13.9825 212.611 14.0245 212.355 14.0245 212.112C14.0245 211.841 13.9918 211.594 13.9265 211.37C13.8611 211.137 13.7491 210.936 13.5905 210.768C13.4038 210.563 13.1938 210.409 12.9605 210.306C12.7271 210.194 12.4471 210.138 12.1205 210.138C11.6351 210.138 11.1918 210.283 10.7905 210.572C10.5851 210.721 10.4218 210.885 10.3005 211.062C10.1885 211.239 10.1325 211.431 10.1325 211.636C10.1325 211.804 10.1978 211.967 10.3285 212.126C10.3938 212.201 10.4405 212.289 10.4685 212.392C10.5058 212.485 10.5245 212.616 10.5245 212.784C10.5245 212.933 10.4638 213.059 10.3425 213.162C10.2305 213.265 10.0858 213.316 9.90847 213.316C9.6378 213.316 9.4558 213.218 9.36247 213.022C9.26914 212.826 9.22247 212.551 9.22247 212.196C9.22247 211.683 9.39047 211.211 9.72647 210.782C9.89447 210.567 10.0811 210.376 10.2865 210.208C10.4918 210.04 10.7205 209.914 10.9725 209.83C11.3645 209.69 11.7798 209.62 12.2185 209.62C13.0398 209.62 13.6978 209.844 14.1925 210.292C14.7151 210.759 14.9765 211.403 14.9765 212.224C14.9765 212.532 14.9251 212.84 14.8225 213.148C14.7291 213.456 14.5751 213.759 14.3605 214.058C14.1365 214.385 13.8751 214.711 13.5765 215.038C13.2778 215.365 12.9511 215.691 12.5965 216.018C12.4191 216.177 12.2138 216.354 11.9805 216.55C11.7471 216.746 11.4811 216.984 11.1825 217.264C10.7158 217.703 10.3331 218.23 10.0345 218.846H12.9885C13.4551 218.846 13.8238 218.734 14.0945 218.51C14.3558 218.314 14.6358 217.857 14.9345 217.138L15.2985 217.236ZM22.832 216.662C22.832 217.689 22.5193 218.515 21.894 219.14C21.3713 219.7 20.6947 219.98 19.864 219.98C19.3507 219.98 18.8793 219.863 18.45 219.63C18.03 219.406 17.7033 219.07 17.47 218.622C17.2087 218.118 17.0267 217.586 16.924 217.026C16.8213 216.457 16.77 215.873 16.77 215.276C16.77 214.539 16.854 213.806 17.022 213.078C17.19 212.322 17.428 211.678 17.736 211.146C18.3987 210.063 19.29 209.522 20.41 209.522C21.0167 209.522 21.5393 209.676 21.978 209.984C22.4073 210.273 22.622 210.614 22.622 211.006C22.622 211.519 22.4167 211.776 22.006 211.776C21.586 211.776 21.376 211.58 21.376 211.188C21.376 211.151 21.376 211.109 21.376 211.062C21.376 211.015 21.3807 210.955 21.39 210.88C21.3993 210.777 21.3993 210.707 21.39 210.67C21.3807 210.623 21.3667 210.581 21.348 210.544C21.1707 210.227 20.8113 210.068 20.27 210.068C19.57 210.068 18.9727 210.525 18.478 211.44C18.3473 211.673 18.2353 211.944 18.142 212.252C18.058 212.56 17.9787 212.91 17.904 213.302C17.8107 213.731 17.764 214.179 17.764 214.646C17.988 214.357 18.2773 214.1 18.632 213.876C19.136 213.568 19.6773 213.414 20.256 213.414C21.0493 213.414 21.67 213.68 22.118 214.212C22.594 214.772 22.832 215.589 22.832 216.662ZM21.88 216.536C21.88 215.659 21.712 215.015 21.376 214.604C21.0027 214.175 20.5453 213.96 20.004 213.96C19.7613 213.96 19.5093 214.021 19.248 214.142C18.996 214.263 18.772 214.403 18.576 214.562C18.184 214.898 17.9133 215.285 17.764 215.724V215.85C17.764 216.923 17.918 217.768 18.226 218.384C18.394 218.72 18.6087 218.986 18.87 219.182C19.1313 219.387 19.458 219.49 19.85 219.49C20.5407 219.49 21.0447 219.233 21.362 218.72C21.7073 218.207 21.88 217.479 21.88 216.536Z" fill="white"/>
<path d="M61.2985 217.236C61.1865 217.656 61.0745 218.076 60.9625 218.496C60.8598 218.916 60.7525 219.336 60.6405 219.756H55.1945C55.1945 219.709 55.1898 219.672 55.1805 219.644C55.1805 219.616 55.1805 219.583 55.1805 219.546C55.1805 219.023 55.5025 218.351 56.1465 217.53C56.3425 217.287 56.5291 217.063 56.7065 216.858C56.8931 216.643 57.0798 216.438 57.2665 216.242C57.4625 216.046 57.6631 215.85 57.8685 215.654C58.0738 215.458 58.3025 215.248 58.5545 215.024C58.7598 214.837 58.9511 214.627 59.1285 214.394C59.3058 214.161 59.4598 213.918 59.5905 213.666C59.7211 213.405 59.8238 213.143 59.8985 212.882C59.9825 212.611 60.0245 212.355 60.0245 212.112C60.0245 211.841 59.9918 211.594 59.9265 211.37C59.8611 211.137 59.7491 210.936 59.5905 210.768C59.4038 210.563 59.1938 210.409 58.9605 210.306C58.7271 210.194 58.4471 210.138 58.1205 210.138C57.6351 210.138 57.1918 210.283 56.7905 210.572C56.5851 210.721 56.4218 210.885 56.3005 211.062C56.1885 211.239 56.1325 211.431 56.1325 211.636C56.1325 211.804 56.1978 211.967 56.3285 212.126C56.3938 212.201 56.4405 212.289 56.4685 212.392C56.5058 212.485 56.5245 212.616 56.5245 212.784C56.5245 212.933 56.4638 213.059 56.3425 213.162C56.2305 213.265 56.0858 213.316 55.9085 213.316C55.6378 213.316 55.4558 213.218 55.3625 213.022C55.2691 212.826 55.2225 212.551 55.2225 212.196C55.2225 211.683 55.3905 211.211 55.7265 210.782C55.8945 210.567 56.0811 210.376 56.2865 210.208C56.4918 210.04 56.7205 209.914 56.9725 209.83C57.3645 209.69 57.7798 209.62 58.2185 209.62C59.0398 209.62 59.6978 209.844 60.1925 210.292C60.7151 210.759 60.9765 211.403 60.9765 212.224C60.9765 212.532 60.9251 212.84 60.8225 213.148C60.7291 213.456 60.5751 213.759 60.3605 214.058C60.1365 214.385 59.8751 214.711 59.5765 215.038C59.2778 215.365 58.9511 215.691 58.5965 216.018C58.4191 216.177 58.2138 216.354 57.9805 216.55C57.7471 216.746 57.4811 216.984 57.1825 217.264C56.7158 217.703 56.3331 218.23 56.0345 218.846H58.9885C59.4551 218.846 59.8238 218.734 60.0945 218.51C60.3558 218.314 60.6358 217.857 60.9345 217.138L61.2985 217.236ZM65.514 215.514C65.6447 215.178 65.878 214.679 66.214 214.016C66.5593 213.344 67.012 212.513 67.572 211.524C67.656 211.384 67.7353 211.244 67.81 211.104C67.894 210.955 67.978 210.805 68.062 210.656H65.374C65.206 210.656 65.052 210.661 64.912 210.67C64.772 210.67 64.6367 210.684 64.506 210.712C64.3847 210.74 64.2587 210.791 64.128 210.866C63.9973 210.941 63.8573 211.048 63.708 211.188C63.4747 211.421 63.2553 211.883 63.05 212.574C63.0033 212.555 62.952 212.541 62.896 212.532C62.84 212.513 62.784 212.495 62.728 212.476C62.8307 212.028 62.9333 211.58 63.036 211.132C63.1387 210.675 63.2413 210.217 63.344 209.76H68.916V210.348C68.8787 210.413 68.846 210.479 68.818 210.544C68.79 210.6 68.7573 210.661 68.72 210.726C68.5613 210.987 68.412 211.239 68.272 211.482C68.132 211.725 67.9967 211.967 67.866 212.21C67.3527 213.05 66.9607 213.839 66.69 214.576C66.5593 214.903 66.4427 215.253 66.34 215.626C66.2373 215.99 66.1487 216.373 66.074 216.774C65.9993 217.129 65.9387 217.46 65.892 217.768C65.8547 218.067 65.836 218.351 65.836 218.622V218.916C65.8267 219.261 65.78 219.518 65.696 219.686C65.612 219.854 65.4487 219.938 65.206 219.938C65.0007 219.938 64.856 219.854 64.772 219.686C64.688 219.537 64.646 219.327 64.646 219.056V218.944C64.6647 218.487 64.744 217.973 64.884 217.404C65.0333 216.835 65.2433 216.205 65.514 215.514Z" fill="#743215"/>
<path d="M106.298 217.236C106.186 217.656 106.074 218.076 105.962 218.496C105.86 218.916 105.752 219.336 105.64 219.756H100.194C100.194 219.709 100.19 219.672 100.18 219.644C100.18 219.616 100.18 219.583 100.18 219.546C100.18 219.023 100.502 218.351 101.146 217.53C101.342 217.287 101.529 217.063 101.706 216.858C101.893 216.643 102.08 216.438 102.266 216.242C102.462 216.046 102.663 215.85 102.868 215.654C103.074 215.458 103.302 215.248 103.554 215.024C103.76 214.837 103.951 214.627 104.128 214.394C104.306 214.161 104.46 213.918 104.59 213.666C104.721 213.405 104.824 213.143 104.898 212.882C104.982 212.611 105.024 212.355 105.024 212.112C105.024 211.841 104.992 211.594 104.926 211.37C104.861 211.137 104.749 210.936 104.59 210.768C104.404 210.563 104.194 210.409 103.96 210.306C103.727 210.194 103.447 210.138 103.12 210.138C102.635 210.138 102.192 210.283 101.79 210.572C101.585 210.721 101.422 210.885 101.3 211.062C101.188 211.239 101.132 211.431 101.132 211.636C101.132 211.804 101.198 211.967 101.328 212.126C101.394 212.201 101.44 212.289 101.468 212.392C101.506 212.485 101.524 212.616 101.524 212.784C101.524 212.933 101.464 213.059 101.342 213.162C101.23 213.265 101.086 213.316 100.908 213.316C100.638 213.316 100.456 213.218 100.362 213.022C100.269 212.826 100.222 212.551 100.222 212.196C100.222 211.683 100.39 211.211 100.726 210.782C100.894 210.567 101.081 210.376 101.286 210.208C101.492 210.04 101.72 209.914 101.972 209.83C102.364 209.69 102.78 209.62 103.218 209.62C104.04 209.62 104.698 209.844 105.192 210.292C105.715 210.759 105.976 211.403 105.976 212.224C105.976 212.532 105.925 212.84 105.822 213.148C105.729 213.456 105.575 213.759 105.36 214.058C105.136 214.385 104.875 214.711 104.576 215.038C104.278 215.365 103.951 215.691 103.596 216.018C103.419 216.177 103.214 216.354 102.98 216.55C102.747 216.746 102.481 216.984 102.182 217.264C101.716 217.703 101.333 218.23 101.034 218.846H103.988C104.455 218.846 104.824 218.734 105.094 218.51C105.356 218.314 105.636 217.857 105.934 217.138L106.298 217.236ZM110.43 214.884C110.131 215.043 109.865 215.211 109.632 215.388C109.408 215.565 109.212 215.761 109.044 215.976C108.783 216.293 108.652 216.755 108.652 217.362C108.652 217.978 108.848 218.482 109.24 218.874C109.641 219.275 110.15 219.476 110.766 219.476C111.419 219.476 111.965 219.28 112.404 218.888C112.852 218.487 113.076 217.983 113.076 217.376C113.076 217.049 112.997 216.76 112.838 216.508C112.689 216.247 112.474 216.009 112.194 215.794C112.11 215.729 111.998 215.654 111.858 215.57C111.718 215.486 111.569 215.402 111.41 215.318C111.251 215.225 111.083 215.141 110.906 215.066C110.738 214.991 110.579 214.931 110.43 214.884ZM110.85 213.988C111.41 213.699 111.835 213.381 112.124 213.036C112.404 212.691 112.544 212.327 112.544 211.944C112.544 211.365 112.381 210.903 112.054 210.558C111.727 210.194 111.303 210.012 110.78 210.012C110.22 210.012 109.749 210.189 109.366 210.544C108.983 210.908 108.792 211.375 108.792 211.944C108.792 212.401 108.983 212.807 109.366 213.162C109.562 213.386 110.057 213.661 110.85 213.988ZM113.86 217.334C113.86 218.109 113.547 218.748 112.922 219.252C112.315 219.756 111.587 220.008 110.738 220.008C109.814 220.008 109.067 219.756 108.498 219.252C107.966 218.776 107.7 218.146 107.7 217.362C107.7 216.643 107.957 216.013 108.47 215.472C108.769 215.164 109.207 214.861 109.786 214.562C109.291 214.329 108.909 214.049 108.638 213.722C108.255 213.265 108.064 212.681 108.064 211.972C108.064 211.263 108.321 210.679 108.834 210.222C109.347 209.746 109.996 209.508 110.78 209.508C111.713 209.508 112.418 209.816 112.894 210.432C113.193 210.815 113.342 211.314 113.342 211.93C113.342 212.443 113.123 212.947 112.684 213.442C112.441 213.722 112.045 214.011 111.494 214.31C112.147 214.609 112.647 214.926 112.992 215.262C113.571 215.813 113.86 216.503 113.86 217.334Z" fill="#743215"/>
<path d="M152.298 217.236C152.186 217.656 152.074 218.076 151.962 218.496C151.86 218.916 151.752 219.336 151.64 219.756H146.194C146.194 219.709 146.19 219.672 146.18 219.644C146.18 219.616 146.18 219.583 146.18 219.546C146.18 219.023 146.502 218.351 147.146 217.53C147.342 217.287 147.529 217.063 147.706 216.858C147.893 216.643 148.08 216.438 148.266 216.242C148.462 216.046 148.663 215.85 148.868 215.654C149.074 215.458 149.302 215.248 149.554 215.024C149.76 214.837 149.951 214.627 150.128 214.394C150.306 214.161 150.46 213.918 150.59 213.666C150.721 213.405 150.824 213.143 150.898 212.882C150.982 212.611 151.024 212.355 151.024 212.112C151.024 211.841 150.992 211.594 150.926 211.37C150.861 211.137 150.749 210.936 150.59 210.768C150.404 210.563 150.194 210.409 149.96 210.306C149.727 210.194 149.447 210.138 149.12 210.138C148.635 210.138 148.192 210.283 147.79 210.572C147.585 210.721 147.422 210.885 147.3 211.062C147.188 211.239 147.132 211.431 147.132 211.636C147.132 211.804 147.198 211.967 147.328 212.126C147.394 212.201 147.44 212.289 147.468 212.392C147.506 212.485 147.524 212.616 147.524 212.784C147.524 212.933 147.464 213.059 147.342 213.162C147.23 213.265 147.086 213.316 146.908 213.316C146.638 213.316 146.456 213.218 146.362 213.022C146.269 212.826 146.222 212.551 146.222 212.196C146.222 211.683 146.39 211.211 146.726 210.782C146.894 210.567 147.081 210.376 147.286 210.208C147.492 210.04 147.72 209.914 147.972 209.83C148.364 209.69 148.78 209.62 149.218 209.62C150.04 209.62 150.698 209.844 151.192 210.292C151.715 210.759 151.976 211.403 151.976 212.224C151.976 212.532 151.925 212.84 151.822 213.148C151.729 213.456 151.575 213.759 151.36 214.058C151.136 214.385 150.875 214.711 150.576 215.038C150.278 215.365 149.951 215.691 149.596 216.018C149.419 216.177 149.214 216.354 148.98 216.55C148.747 216.746 148.481 216.984 148.182 217.264C147.716 217.703 147.333 218.23 147.034 218.846H149.988C150.455 218.846 150.824 218.734 151.094 218.51C151.356 218.314 151.636 217.857 151.934 217.138L152.298 217.236ZM154.694 217.768C155.114 217.768 155.324 218.006 155.324 218.482C155.324 218.79 155.408 219.005 155.576 219.126C155.791 219.331 156.099 219.434 156.5 219.434C156.771 219.434 157.055 219.336 157.354 219.14C157.718 218.925 158.003 218.585 158.208 218.118C158.311 217.875 158.404 217.595 158.488 217.278C158.581 216.961 158.665 216.592 158.74 216.172C158.777 215.92 158.819 215.477 158.866 214.842C158.763 215.019 158.628 215.183 158.46 215.332C158.301 215.472 158.124 215.598 157.928 215.71C157.433 215.99 156.906 216.13 156.346 216.13C155.646 216.13 155.053 215.859 154.568 215.318C154.055 214.749 153.798 213.951 153.798 212.924C153.798 212.009 154.05 211.235 154.554 210.6C155.123 209.891 155.875 209.536 156.808 209.536C157.667 209.536 158.343 209.844 158.838 210.46C159.025 210.684 159.179 210.922 159.3 211.174C159.431 211.417 159.538 211.692 159.622 212C159.687 212.289 159.739 212.621 159.776 212.994C159.813 213.358 159.837 213.778 159.846 214.254V214.408C159.855 214.688 159.841 214.973 159.804 215.262C159.767 215.542 159.715 215.831 159.65 216.13C159.557 216.606 159.449 217.026 159.328 217.39C159.207 217.754 159.071 218.071 158.922 218.342C158.297 219.415 157.391 219.952 156.206 219.952C155.814 219.952 155.469 219.896 155.17 219.784C154.871 219.672 154.629 219.532 154.442 219.364C154.181 219.103 154.05 218.804 154.05 218.468C154.05 218.001 154.265 217.768 154.694 217.768ZM158.838 213.932V213.638C158.838 213.386 158.829 213.148 158.81 212.924C158.791 212.691 158.763 212.467 158.726 212.252C158.642 211.757 158.497 211.347 158.292 211.02C158.124 210.721 157.923 210.488 157.69 210.32C157.457 210.152 157.163 210.068 156.808 210.068C156.481 210.068 156.201 210.133 155.968 210.264C155.735 210.395 155.529 210.586 155.352 210.838C154.979 211.361 154.792 212.07 154.792 212.966C154.792 213.741 154.946 214.357 155.254 214.814C155.571 215.29 156.019 215.528 156.598 215.528C157.055 215.528 157.503 215.374 157.942 215.066C158.39 214.749 158.689 214.371 158.838 213.932Z" fill="#743215"/>
<path d="M198.284 216.928C198.284 217.759 198.023 218.449 197.5 219C196.884 219.644 196.068 219.966 195.05 219.966C194.602 219.966 194.206 219.905 193.86 219.784C193.524 219.663 193.221 219.495 192.95 219.28C192.708 219.075 192.521 218.837 192.39 218.566C192.26 218.286 192.194 217.992 192.194 217.684C192.194 217.404 192.292 217.185 192.488 217.026C192.582 216.942 192.712 216.9 192.88 216.9C193.291 216.9 193.496 217.124 193.496 217.572C193.496 217.637 193.482 217.721 193.454 217.824C193.436 217.917 193.426 217.992 193.426 218.048C193.426 218.188 193.44 218.342 193.468 218.51C193.496 218.669 193.548 218.79 193.622 218.874C193.996 219.247 194.472 219.434 195.05 219.434C195.33 219.434 195.629 219.364 195.946 219.224C196.264 219.084 196.516 218.907 196.702 218.692C197.104 218.235 197.304 217.633 197.304 216.886C197.304 216.307 197.071 215.799 196.604 215.36C196.343 215.117 196.068 214.945 195.778 214.842C195.489 214.73 195.134 214.674 194.714 214.674C194.677 214.674 194.635 214.679 194.588 214.688C194.551 214.688 194.509 214.693 194.462 214.702C194.416 214.711 194.378 214.721 194.35 214.73C194.322 214.73 194.299 214.73 194.28 214.73C194.159 214.73 194.075 214.665 194.028 214.534C194.01 214.478 193.996 214.431 193.986 214.394C193.986 214.347 193.986 214.301 193.986 214.254C193.986 214.114 194.052 214.035 194.182 214.016C194.229 214.007 194.271 214.007 194.308 214.016C194.346 214.016 194.392 214.021 194.448 214.03C194.504 214.039 194.551 214.049 194.588 214.058C194.635 214.058 194.677 214.058 194.714 214.058C194.892 214.058 195.074 214.035 195.26 213.988C195.456 213.932 195.643 213.867 195.82 213.792C196.082 213.671 196.278 213.545 196.408 213.414C196.838 213.05 197.052 212.574 197.052 211.986C197.052 211.407 196.903 210.955 196.604 210.628C196.446 210.46 196.25 210.32 196.016 210.208C195.792 210.087 195.554 210.021 195.302 210.012H195.064C195.027 210.012 194.99 210.012 194.952 210.012C194.915 210.012 194.878 210.017 194.84 210.026C194.42 210.063 194.094 210.199 193.86 210.432C193.72 210.572 193.65 210.726 193.65 210.894C193.65 210.969 193.664 211.048 193.692 211.132C193.72 211.207 193.739 211.286 193.748 211.37C193.767 211.454 193.776 211.524 193.776 211.58C193.776 211.804 193.725 211.981 193.622 212.112C193.529 212.233 193.38 212.294 193.174 212.294L193.16 212.28C192.75 212.252 192.544 212 192.544 211.524C192.544 210.992 192.782 210.535 193.258 210.152C193.734 209.779 194.29 209.569 194.924 209.522C194.971 209.513 195.032 209.508 195.106 209.508H195.302C196.114 209.517 196.772 209.746 197.276 210.194C197.762 210.642 198.004 211.239 198.004 211.986C198.004 212.602 197.794 213.134 197.374 213.582C197.066 213.918 196.674 214.179 196.198 214.366C196.805 214.553 197.276 214.842 197.612 215.234C198.06 215.738 198.284 216.303 198.284 216.928ZM206.014 214.73C206.014 216.223 205.739 217.441 205.188 218.384C204.6 219.401 203.797 219.91 202.78 219.91C201.763 219.91 200.96 219.401 200.372 218.384C199.821 217.441 199.546 216.223 199.546 214.73C199.546 213.237 199.821 212.019 200.372 211.076C200.96 210.068 201.763 209.564 202.78 209.564C203.797 209.564 204.6 210.068 205.188 211.076C205.739 212.019 206.014 213.237 206.014 214.73ZM205.048 214.73C205.048 213.451 204.875 212.397 204.53 211.566C204.129 210.577 203.545 210.082 202.78 210.082C202.015 210.082 201.436 210.577 201.044 211.566C200.689 212.443 200.512 213.498 200.512 214.73C200.512 215.962 200.689 217.017 201.044 217.894C201.436 218.883 202.015 219.378 202.78 219.378C203.545 219.378 204.129 218.883 204.53 217.894C204.875 217.063 205.048 216.009 205.048 214.73Z" fill="#743215"/>
</svg>
